<svg fill="none" height="24" viewBox="0 0 24 24" width="24" xmlns="http://www.w3.org/2000/svg"><g stroke="#000" stroke-linecap="round" stroke-width="1.5"><path d="m14 9.29999v2.95001h2.63c.19 0 .33.17.29.36l-.38 1.9c-.03.14-.15.24-.29.24h-2.25v7.25h-3v-7.25h-1.70001c-.17 0-.29999-.13-.29999-.3v-1.9c0-.17.12999-.3.29999-.3h1.70001v-3.25c0-1.66 1.34-3 3-3h2.7c.17 0 .3.12999.3.29999v2.40002c0 .17-.13.29999-.3.29999h-2.4c-.17 0-.3.12999-.3.29999z" stroke-miterlimit="10"/><path d="m2 12.83v2.17c0 5 2 7 7 7h6c5 0 7-2 7-7v-6c0-5-2-7-7-7h-6c-5 0-7 2-7 7" stroke-linejoin="round"/></g></svg>